<svg width="15" height="16" viewBox="0 0 15 16" fill="none" xmlns="http://www.w3.org/2000/svg">
<path fill-rule="evenodd" clip-rule="evenodd" d="M7.5 13.5C10.5376 13.5 13 11.0376 13 8C13 4.96243 10.5376 2.5 7.5 2.5C4.46243 2.5 2 4.96243 2 8C2 11.0376 4.46243 13.5 7.5 13.5ZM5.85355 5.64645C5.65829 5.45118 5.34171 5.45118 5.14645 5.64645C4.95118 5.84171 4.95118 6.15829 5.14645 6.35355L6.79289 8L5.14645 9.64645C4.95118 9.84171 4.95118 10.1583 5.14645 10.3536C5.34171 10.5488 5.65829 10.5488 5.85355 10.3536L7.5 8.70711L9.14645 10.3536C9.34171 10.5488 9.65829 10.5488 9.85355 10.3536C10.0488 10.1583 10.0488 9.84171 9.85355 9.64645L8.20711 8L9.85355 6.35355C10.0488 6.15829 10.0488 5.84171 9.85355 5.64645C9.65829 5.45118 9.34171 5.45118 9.14645 5.64645L7.5 7.29289L5.85355 5.64645Z" fill="#9C9C9C"/>
</svg>
