<svg width="136" height="137" viewBox="0 0 136 137" fill="none" xmlns="http://www.w3.org/2000/svg">
<path fill-rule="evenodd" clip-rule="evenodd" d="M23.441 1.92433C12.6005 5.79188 3.86226 15.0311 1.00292 25.647C0.18525 28.6843 -0.164282 45.781 0.0729442 71.1491C0.438879 110.288 0.55497 111.976 3.2427 117.001C7.11277 124.235 13.1482 129.937 20.6158 133.415C26.848 136.317 27.6228 136.365 67.9614 136.365C108.3 136.365 109.075 136.317 115.307 133.415C122.775 129.937 128.81 124.235 132.68 117.001C135.369 111.972 135.484 110.305 135.849 70.6746C136.208 31.6079 136.096 29.2155 133.6 22.5441C130.117 13.2368 121.262 4.83414 112.053 2.09847C102.974 -0.596833 30.9074 -0.739422 23.441 1.92433ZM77.0265 55.3521C77.4025 75.2955 77.5956 76.7403 80.3653 80.2735C86.6518 88.2912 95.78 90.3935 104.655 85.866C116.67 79.7359 118.246 64.1963 107.839 54.4751C104.048 50.9331 92.7945 49.3608 88.3314 51.7495C85.6777 53.1703 85.6272 53.0189 85.6272 43.6888V34.1808H81.1275H76.6277L77.0265 55.3521ZM19.0246 53.3382C30.4165 84.3429 31.8197 87.3032 34.9427 86.9234C37.5371 86.6079 38.6362 84.96 41.787 76.6621C43.8526 71.2261 45.9662 67.2513 46.4848 67.8292C47.0034 68.4084 49.0249 73.0267 50.9783 78.0918C54.1404 86.295 54.8609 87.2616 57.5638 86.9247C60.2124 86.5953 61.4503 84.3391 67.2851 69.197L73.9716 51.8467H69.2422H64.514L61.0402 61.3711C59.1298 66.609 57.208 70.5396 56.7701 70.1068C56.3322 69.6727 54.5316 65.5288 52.7688 60.8979C50.0457 53.7457 49.0653 52.4195 46.2501 52.0889C43.1876 51.7293 42.6715 52.4157 39.3996 61.2133C37.4538 66.4449 35.4462 70.31 34.9364 69.8002C34.4266 69.2904 32.6273 65.1856 30.9364 60.6758C27.9685 52.7602 27.6998 52.4637 23.1382 52.0763C19.6441 51.7785 18.5728 52.1079 19.0246 53.3382ZM91.3055 59.6133C87.3017 61.8026 85.6272 64.6241 85.6272 69.1806C85.6272 77.5567 94.9598 82.3997 101.831 77.587C108.192 73.1314 107.573 63.5667 100.695 60.0108C96.4677 57.824 94.7112 57.7496 91.3055 59.6133Z" fill="#BA1F2D"/>
</svg>
