<svg width="136" height="136" viewBox="0 0 136 136" fill="none" xmlns="http://www.w3.org/2000/svg">
<g clip-path="url(#clip0_268_3262)">
<path fill-rule="evenodd" clip-rule="evenodd" d="M121.054 83.625C121.054 83.625 132.05 94.4846 134.77 99.5098C134.826 99.5803 134.868 99.6612 134.892 99.7478C135.998 101.602 136.277 103.064 135.729 104.134C134.811 105.909 131.703 106.799 130.649 106.874H111.215C109.861 106.874 107.046 106.521 103.619 104.154C101.001 102.325 98.3966 99.3126 95.8738 96.3682C92.1066 91.9958 88.8494 88.2014 85.5514 88.2014C85.1354 88.2066 84.7226 88.2754 84.3274 88.4054C81.8318 89.1942 78.663 92.7506 78.663 102.223C78.663 105.188 76.3238 106.874 74.685 106.874H65.7838C62.751 106.874 46.9614 105.813 32.9602 91.0506C15.8038 72.9762 0.395012 36.7186 0.245412 36.399C-0.713388 34.053 1.29941 32.7746 3.47541 32.7746H23.1002C25.7318 32.7746 26.5886 34.3658 27.187 35.7938C27.8806 37.4326 30.451 43.9878 34.667 51.3522C41.4942 63.3338 45.6898 68.2094 49.0422 68.2094C49.6719 68.2103 50.2909 68.0462 50.8374 67.7334C55.2166 65.3262 54.4006 49.6862 54.1966 46.463C54.1966 45.8374 54.1898 39.4794 51.9458 36.4058C50.341 34.2026 47.6074 33.3458 45.955 33.033C46.397 32.3938 47.3354 31.4146 48.539 30.8366C51.5378 29.3406 56.9574 29.123 62.3362 29.123H65.3214C71.1558 29.2046 72.6654 29.5786 74.787 30.1158C79.0574 31.1358 79.139 33.9034 78.765 43.3282C78.6562 46.021 78.5406 49.0538 78.5406 52.6238C78.5406 53.3854 78.5066 54.2354 78.5066 55.099C78.3774 59.9338 78.2074 65.3806 81.621 67.6178C82.0622 67.8971 82.5745 68.0435 83.0966 68.0394C84.2798 68.0394 87.8226 68.0394 97.431 51.5494C101.647 44.2666 104.911 35.6782 105.135 35.0322C105.326 34.6718 105.897 33.6586 106.591 33.2506C107.086 32.9939 107.637 32.8631 108.195 32.8698H131.281C133.797 32.8698 135.504 33.2506 135.837 34.2026C136.395 35.7462 135.729 40.4586 125.189 54.7114C123.414 57.0846 121.857 59.1382 120.49 60.9334C110.936 73.4726 110.936 74.105 121.054 83.625Z" fill="#BA1F2D"/>
</g>
<defs>
<clipPath id="clip0_268_3262">
<rect width="136" height="136" fill="white"/>
</clipPath>
</defs>
</svg>
