<svg width="32" height="32" viewBox="0 0 32 32" fill="none" xmlns="http://www.w3.org/2000/svg">
<path d="M24.0007 8.00033H21.334C21.334 5.05366 18.9473 2.66699 16.0007 2.66699C13.054 2.66699 10.6673 5.05366 10.6673 8.00033H8.00065C6.53398 8.00033 5.33398 9.20033 5.33398 10.667V26.667C5.33398 28.1337 6.53398 29.3337 8.00065 29.3337H24.0007C25.4673 29.3337 26.6673 28.1337 26.6673 26.667V10.667C26.6673 9.20033 25.4673 8.00033 24.0007 8.00033ZM16.0007 5.33366C17.4673 5.33366 18.6673 6.53366 18.6673 8.00033H13.334C13.334 6.53366 14.534 5.33366 16.0007 5.33366ZM24.0007 26.667H8.00065V10.667H10.6673V13.3337C10.6673 14.067 11.2673 14.667 12.0007 14.667C12.734 14.667 13.334 14.067 13.334 13.3337V10.667H18.6673V13.3337C18.6673 14.067 19.2673 14.667 20.0007 14.667C20.734 14.667 21.334 14.067 21.334 13.3337V10.667H24.0007V26.667Z" fill="#101010"/>
</svg>
